<svg width="298" height="379" xmlns="http://www.w3.org/2000/svg" xmlns:xlink="http://www.w3.org/1999/xlink" xml:space="preserve" overflow="hidden"><g transform="translate(-120 -963)"><path d="M141.5 1066.33C141.5 1042.68 160.678 1023.5 184.334 1023.5L355.666 1023.5C379.322 1023.5 398.5 1042.68 398.5 1066.33L398.5 1295.67C398.5 1319.32 379.322 1338.5 355.666 1338.5L184.334 1338.5C160.678 1338.5 141.5 1319.32 141.5 1295.67Z" stroke="#000000" stroke-width="6.875" stroke-miterlimit="8" fill-rule="evenodd"/><path d="M123.5 1006.17C123.5 1001.38 127.38 997.5 132.167 997.5L405.833 997.5C410.62 997.5 414.5 1001.38 414.5 1006.17L414.5 1040.83C414.5 1045.62 410.62 1049.5 405.833 1049.5L132.167 1049.5C127.38 1049.5 123.5 1045.62 123.5 1040.83Z" stroke="#000000" stroke-width="6.875" stroke-miterlimit="8" fill-rule="evenodd"/><path d="M206.5 975.334C206.5 970.455 210.455 966.5 215.334 966.5L323.666 966.5C328.545 966.5 332.5 970.455 332.5 975.334L332.5 1010.67C332.5 1015.55 328.545 1019.5 323.666 1019.5L215.334 1019.5C210.455 1019.5 206.5 1015.55 206.5 1010.67Z" stroke="#000000" stroke-width="6.875" stroke-miterlimit="8" fill-rule="evenodd"/><path d="M197.5 1086.5C197.5 1084.84 198.843 1083.5 200.5 1083.5L212.5 1083.5C214.157 1083.5 215.5 1084.84 215.5 1086.5L215.5 1278.5C215.5 1280.16 214.157 1281.5 212.5 1281.5L200.5 1281.5C198.843 1281.5 197.5 1280.16 197.5 1278.5Z" stroke="#FFFFFF" stroke-width="6.875" stroke-miterlimit="8" fill="#FFFFFF" fill-rule="evenodd"/><path d="M260.5 1086.5C260.5 1084.84 261.843 1083.5 263.5 1083.5L275.5 1083.5C277.157 1083.5 278.5 1084.84 278.5 1086.5L278.5 1278.5C278.5 1280.16 277.157 1281.5 275.5 1281.5L263.5 1281.5C261.843 1281.5 260.5 1280.16 260.5 1278.5Z" stroke="#FFFFFF" stroke-width="6.875" stroke-miterlimit="8" fill="#FFFFFF" fill-rule="evenodd"/><path d="M323.5 1086.5C323.5 1084.84 324.843 1083.5 326.5 1083.5L338.5 1083.5C340.157 1083.5 341.5 1084.84 341.5 1086.5L341.5 1278.5C341.5 1280.16 340.157 1281.5 338.5 1281.5L326.5 1281.5C324.843 1281.5 323.5 1280.16 323.5 1278.5Z" stroke="#FFFFFF" stroke-width="6.875" stroke-miterlimit="8" fill="#FFFFFF" fill-rule="evenodd"/></g></svg>