<svg width="72" height="80" xmlns="http://www.w3.org/2000/svg" xmlns:xlink="http://www.w3.org/1999/xlink" xml:space="preserve" overflow="hidden"><g transform="translate(-455 -1251)"><path d="M506.5 1303.5C506.5 1307.92 502.918 1311.5 498.5 1311.5L466.5 1311.5C462.082 1311.5 458.5 1307.92 458.5 1303.5L458.5 1262.5C458.5 1258.08 462.082 1254.5 466.5 1254.5L498.5 1254.5C502.918 1254.5 506.5 1258.08 506.5 1262.5Z" stroke="#042433" stroke-width="6.875" stroke-miterlimit="8" fill="#FFFFFF" fill-rule="evenodd"/><path d="M523.5 1319.5C523.5 1323.92 519.918 1327.5 515.5 1327.5L483.5 1327.5C479.082 1327.5 475.5 1323.92 475.5 1319.5L475.5 1279.5C475.5 1275.08 479.082 1271.5 483.5 1271.5L515.5 1271.5C519.918 1271.5 523.5 1275.08 523.5 1279.5Z" stroke="#042433" stroke-width="6.875" stroke-miterlimit="8" fill="#FFFFFF" fill-rule="evenodd"/></g></svg>