<svg width="339" height="483" xmlns="http://www.w3.org/2000/svg" xmlns:xlink="http://www.w3.org/1999/xlink" xml:space="preserve" overflow="hidden"><g transform="translate(-105 -1925)"><path d="M108.5 2304.33C108.5 2299.45 112.455 2295.5 117.333 2295.5L431.666 2295.5C436.545 2295.5 440.5 2299.45 440.5 2304.33L440.5 2339.67C440.5 2344.55 436.545 2348.5 431.666 2348.5L117.333 2348.5C112.455 2348.5 108.5 2344.55 108.5 2339.67Z" stroke="#000000" stroke-width="6.875" stroke-linecap="square" stroke-miterlimit="8" stroke-opacity="0.960784" fill-rule="evenodd"/><path d="M296.917 1925 296.917 2153.62 251.084 2153.62 251.083 1925ZM342.75 2130.7 274 2268.2 205.25 2130.7Z"/><path d="M108.5 2223.5C108.5 2219.08 112.082 2215.5 116.5 2215.5L148.5 2215.5C152.918 2215.5 156.5 2219.08 156.5 2223.5L156.5 2340.5C156.5 2344.92 152.918 2348.5 148.5 2348.5L116.5 2348.5C112.082 2348.5 108.5 2344.92 108.5 2340.5Z" stroke="#000000" stroke-width="6.875" stroke-miterlimit="8" fill-rule="evenodd"/><path d="M392.5 2223.5C392.5 2219.08 396.082 2215.5 400.5 2215.5L432.5 2215.5C436.918 2215.5 440.5 2219.08 440.5 2223.5L440.5 2340.5C440.5 2344.92 436.918 2348.5 432.5 2348.5L400.5 2348.5C396.082 2348.5 392.5 2344.92 392.5 2340.5Z" stroke="#000000" stroke-width="6.875" stroke-miterlimit="8" fill-rule="evenodd"/></g></svg>