<svg width="72" height="84" xmlns="http://www.w3.org/2000/svg" xmlns:xlink="http://www.w3.org/1999/xlink" xml:space="preserve" overflow="hidden"><g transform="translate(-358 -1247)"><rect x="361.5" y="1255.5" width="47.9998" height="56" stroke="#042433" stroke-width="6.875" stroke-miterlimit="8" fill="#FFFFFF"/><path d="M372 1251.83C372 1250.82 372.821 1250 373.833 1250L397.167 1250C398.179 1250 399 1250.82 399 1251.83L399 1259.17C399 1260.18 398.179 1261 397.167 1261L373.833 1261C372.821 1261 372 1260.18 372 1259.17Z" stroke="#042433" stroke-width="5.72917" stroke-miterlimit="8" fill="#FFFFFF" fill-rule="evenodd"/><path d="M378.5 1279.5C378.5 1275.08 382.082 1271.5 386.5 1271.5L418.5 1271.5C422.918 1271.5 426.5 1275.08 426.5 1279.5L426.5 1319.5C426.5 1323.92 422.918 1327.5 418.5 1327.5L386.5 1327.5C382.082 1327.5 378.5 1323.92 378.5 1319.5Z" stroke="#042433" stroke-width="6.875" stroke-miterlimit="8" fill="#FFFFFF" fill-rule="evenodd"/></g></svg>