<svg width="382" height="338" xmlns="http://www.w3.org/2000/svg" xmlns:xlink="http://www.w3.org/1999/xlink" xml:space="preserve" overflow="hidden"><g transform="translate(-586 -1990)"><path d="M0 331 0 144.813C-2.3553e-14 64.8348 64.8347-2.3553e-14 144.812-4.7106e-14L170.315 0C250.292-4.7106e-14 315.127 64.8348 315.127 144.813L315.127 244.007 370 244.007 287.25 326.757 204.5 244.007 259.374 244.007 259.374 144.813C259.374 95.6267 219.501 55.7538 170.315 55.7538L144.812 55.7538C95.6266 55.7538 55.7537 95.6267 55.7537 144.813L55.7537 331Z" stroke="#000000" stroke-width="6.875" stroke-miterlimit="8" fill-rule="evenodd" transform="matrix(-1 0 0 1 964.5 1993.5)"/></g></svg>